<?xml version="1.0" encoding="utf-8"?>
<!-- Generator: Adobe Illustrator 19.1.0, SVG Export Plug-In . SVG Version: 6.00 Build 0)  -->
<svg version="1.1" id="Layer_1" xmlns="http://www.w3.org/2000/svg" xmlns:xlink="http://www.w3.org/1999/xlink" x="0px" y="0px"
	 viewBox="0 0 557.5 519.2" style="enable-background:new 0 0 557.5 519.2;" xml:space="preserve">
<style type="text/css">
	.st0{fill:#3659A8;}
	.st1{fill:#47B6E8;}
	.st2{fill:#E5E5E5;}
	.st3{opacity:0.31;}
	.st4{fill:#262262;}
	.st5{opacity:0.16;fill:#97DAF8;}
	.st6{fill:#97DAF8;}
	.st7{opacity:0.23;fill:#47B6E8;}
	.st8{opacity:0.39;fill:#47B6E8;}
	.st9{opacity:0.83;}
	.st10{opacity:0.86;fill:#FFFFFF;}
</style>
<path class="st0" d="M448.4,149.6c-29.9-42.8-67-63-80.8-69.8c-38.9-19.2-74.6-21.9-94-22c-16.8,0.2-90.1,3.1-149.6,61.3
	c-44.7,43.7-57.1,94.8-60.9,114.6c67.9,43.2,135.7,86.4,203.6,129.6c72.3-43.2,144.7-86.3,217-129.5
	C480.3,215.1,471.6,182.8,448.4,149.6z"/>
<path class="st1" d="M63.2,233.7c-2.8,14.7-4.9,34.8-2.6,58.2c1,10,3.8,32.1,14.2,58.4c5.3,13.2,13.7,30.5,27.1,48.6
	c13.4,18,27.4,31,38.4,39.8c42.1-25.1,84.3-50.3,126.4-75.4C198.9,320.1,131.1,276.9,63.2,233.7z"/>
<path class="st2" d="M331.9,0"/>
<path class="st2" d="M458.2-126.3"/>
<g class="st3">
	<path class="st4" d="M360.2,166.7c-24.7-32.5-64-33.8-69.1-33.9c-2.7-0.1-49.5-0.2-75,39.2c-17.9,27.7-18.1,63.7-0.7,92.4l0,0
		l76.3,126.4l73.7-126.4C383.1,232.5,381,194.1,360.2,166.7z"/>
</g>
<polygon class="st5" points="228,216.1 265.9,254 326.7,193.2 309.5,176.1 267.3,218.3 247.6,197.6 "/>
<path class="st6" d="M140.4,438.8c114.6-68.3,229.1-136.6,343.7-204.9c2.8,17.3,4.7,41.4,0.6,69.7c-2.7,18.3-7.3,33.8-12,46.2
	c-3.4,8.7-42.9,105.3-149,130.7C224.4,504.3,149.2,445.9,140.4,438.8z"/>
<polygon class="st7" points="291.8,390.8 278.3,368.5 289,350.1 330.2,325.6 "/>
<path class="st8" d="M266.8,363.4l136.6,78.3c-15.7,12.2-56.7,40.5-116.1,44.3c-78.6,5-133.6-36.5-146.9-47.2
	C182.5,413.6,224.7,388.5,266.8,363.4z"/>
<g>
	<g>
		<path class="st2" d="M339.2,157.3c-24.7-32.5-64-33.8-69.1-33.9c-2.7-0.1-49.5-0.2-75,39.2c-17.9,27.7-18.1,63.7-0.7,92.4l0,0
			l76.3,126.4l73.7-126.4C362.1,223.1,360,184.6,339.2,157.3z"/>
	</g>
	<g class="st9">
		<circle class="st10" cx="268.9" cy="207.6" r="68"/>
		<polygon class="st6" points="228,208.6 265.9,246.5 326.7,185.7 309.5,168.6 267.3,210.8 247.6,190.1 		"/>
	</g>
</g>
</svg>
