<?xml version="1.0" encoding="utf-8"?>
<!-- Generator: Adobe Illustrator 19.1.0, SVG Export Plug-In . SVG Version: 6.00 Build 0)  -->
<svg version="1.1" id="Layer_1" xmlns="http://www.w3.org/2000/svg" xmlns:xlink="http://www.w3.org/1999/xlink" x="0px" y="0px"
	 viewBox="0 0 557.5 519.2" style="enable-background:new 0 0 557.5 519.2;" xml:space="preserve">
<style type="text/css">
	.st0{fill:#47B6E8;}
	.st1{opacity:0.31;fill:#1C75BC;}
	.st2{fill:#FFFFFF;}
</style>
<circle class="st0" cx="274.6" cy="259.6" r="223.3"/>
<path class="st1" d="M207.5,383.7l96.8,96.8c20.1-2.7,72.8-12.4,120.4-55.6c57.2-52,68.3-117.3,70.8-135.6
	c-29.3-29.4-58.6-58.8-87.9-88.1c-0.4,4.5-1.4,11.1-4.6,18.4c-1.4,3.2-6.4,14.5-17.4,22.6c-18.5,13.7-40.9,8.9-44.6,8
	C296.6,294.7,252.1,339.2,207.5,383.7z"/>
<g>
	<path class="st2" d="M405.9,177.9c-2-3.5-4.1-4.5-5.5-4.9c-8.5-2.2-15.5,15-29.1,16.1c-5.3,0.4-9.8-1.7-12.5-3.3
		c-2.4-2.3-5.3-5.8-5.9-10.5c-1.9-14.6,20.4-26.4,17.1-34.1c-0.7-1.5-2.5-3.3-7.9-4.1c-20.9-4.7-42.6,1.8-56.4,17.2
		c-17.2,19.2-14.3,43.1-13.8,46.6L161.3,337.4c-0.3,1.4-4.7,20.7,9.2,35.4c9.4,10,23.6,14.1,37.1,10.8c44.5-44.5,89-89,133.6-133.6
		c5.1,1.2,24,4.8,41.3-5.9C402.6,231.8,412.4,205,405.9,177.9z M311.9,167.1c15.7-23.1,46.1-21.2,47.5-21.1
		c-6.2,1.1-23.1,5-37.6,19.8c-11.9,12.1-16.2,25.4-17.8,31.7C303.7,192.3,303.6,179.4,311.9,167.1z M380.2,237.4
		c-17.6,12.6-37.7,8.3-41,7.5c-44.6,44.6-89.2,89.2-133.9,133.9c-1.7,0.5-3.5,0.5-4.4-0.5c-1.3-1.4-1-4.8,2.1-7.3l132.6-132.6
		c3.9,1.4,20.9,6.8,37.8-1.8c18.2-9.2,28.7-31.1,25.6-54.3C404.2,203.7,396.6,225.6,380.2,237.4z"/>
	<path class="st2" d="M264.8,213.2c-4.1-4.1-10.8-4.1-14.9,0l-5.4,5.4c-4.2,4.2-11,4.2-15.2,0l-20-20c-3-3-4.7-7-4.8-11.2l-0.1-4.6
		c-0.1-2.5-1.4-4.9-3.5-6.3l-38.4-26.1c-3.6-2.4-8.4-2-11.5,1.1l-7,7c-3,3-3.5,7.6-1.3,11.2l23.3,37.1c1.4,2.3,4,3.7,6.7,3.7h5.8
		c4.4,0,8.6,1.7,11.7,4.8l21.2,21.2c4.2,4.2,4.2,11,0,15.2l-10.9,10.9c-4.1,4.1-4.1,10.6-0.1,14.7l5.7,5.9l64.4-64.4L264.8,213.2z
		 M170.7,203.7l-23.4-39l31.2,39H170.7z"/>
	<path class="st2" d="M383.3,340l-63.1-63.1l-54,54l64.4,62.2c3.8,3.6,8.8,5.8,14,5.8c8.4,0.1,21.1-1.8,31.7-12
		c11-10.6,13.1-23.9,13.1-32.6C389.3,348.9,387.1,343.8,383.3,340z M370.3,380.4c-2.5,2.1-8.1,7-16.4,8.9c-3.1,0.7-5.7,0.8-7.1,0.9
		c-6.8,0.3-12.9-1-12.8-1.6c0-0.5,4.3-0.2,11.2-1.9c2.6-0.6,4.7-1.3,6.1-1.9c6.9-3.1,11.7-6.8,14.7-9.5c4.9-4.4,8.9-9.3,10.9-15.7
		c1.3-4.1,0.2-8.6-2.8-11.6c-20.1-20-40.3-40-60.4-60.1l2.8-3.2c21.3,21,42.6,42,63.8,63.1c2.6,2.6,3.9,6.2,3.2,9.8
		C381.5,368.5,374.2,377.1,370.3,380.4z"/>
	<path class="st2" d="M261.5,218.3c-9.1,6.5-19.3,14.6-29.7,24.7c-11.4,11.1-20.4,22-27.5,31.6L261.5,218.3z"/>
</g>
</svg>
