<?xml version="1.0" encoding="utf-8"?>
<!-- Generator: Adobe Illustrator 19.1.0, SVG Export Plug-In . SVG Version: 6.00 Build 0)  -->
<svg version="1.1" id="Layer_1" xmlns="http://www.w3.org/2000/svg" xmlns:xlink="http://www.w3.org/1999/xlink" x="0px" y="0px"
	 viewBox="-30 240.4 550.4 312.6" style="enable-background:new -30 240.4 550.4 312.6;" xml:space="preserve">
<style type="text/css">
	.st0{fill:#47B6E8;}
	.st1{opacity:0.51;fill:#1C75BC;enable-background:new    ;}
	.st2{fill:none;}
	.st3{fill:#FFFFFF;}
	.st4{font-family:'Roboto-Light';}
	.st5{font-size:47.0024px;}
	.st6{fill:#F1F0F0;enable-background:new    ;}
	.st7{font-size:154.4365px;}
	.st8{opacity:0.85;fill:#1C75BC;enable-background:new    ;}
	.st9{font-size:35.2518px;}
	.st10{fill:none;stroke:#FFFFFF;stroke-width:3;stroke-miterlimit:10;}
	.st11{opacity:0.39;}
	.st12{fill:#266188;}
	.st13{fill:#1C75BC;}
	.st14{font-size:80.5756px;}
</style>
<path class="st0" d="M-9.2,325.6v-42.7c0-13.9,11.2-25.1,25.1-25.1h455.8c13.9,0,25.1,11.2,25.1,25.1v42.7H-9.2z"/>
<rect x="-9.2" y="284.8" class="st1" width="506" height="40.7"/>
<rect x="156.2" y="276.6" class="st2" width="195.3" height="43.4"/>
<text transform="matrix(1 0 0 1 156.1909 310.1153)" class="st3 st4 st5">October</text>
<path class="st6" d="M-9.2,325.6h506v179.3c0,12-9.7,21.8-21.8,21.8H12.6c-12,0-21.8-9.7-21.8-21.8V325.6z"/>
<rect x="1.7" y="364.7" class="st2" width="175.7" height="135.5"/>
<text transform="matrix(1 0 0 1 1.7436 474.9583)" class="st0 st4 st7">17</text>
<rect x="269.7" y="460.6" class="st2" width="178.6" height="39.8"/>
<text transform="matrix(1 0 0 1 269.6671 475.1072)" class="st8 st4 st9">Attendance</text>
<line class="st10" x1="-9.2" y1="325.6" x2="496.9" y2="325.6"/>
<g class="st11">
	<line class="st2" x1="200.1" y1="526.6" x2="200.1" y2="325.6"/>
	<path class="st12" d="M200.1,526.6c0,0,0-0.8-0.1-2.3c0-1.5-0.1-3.6-0.2-6.4c-0.1-5.5-0.4-13.3-0.6-22.8c-0.1-4.7-0.2-9.8-0.3-15.2
		s-0.1-11.1-0.2-17c0-5.9-0.1-12-0.1-18.2c0-6.2,0-12.5-0.1-18.7c0-6.3,0-12.6,0.1-18.7c0-6.2,0.1-12.3,0.1-18.2
		c0.1-11.8,0.3-22.8,0.5-32.2c0.2-9.4,0.4-17.3,0.6-22.8c0.1-2.7,0.2-4.9,0.2-6.4c0.1-1.5,0.1-2.3,0.1-2.3s0,0.8,0.1,2.3
		c0,1.5,0.1,3.6,0.2,6.4c0.1,5.5,0.4,13.3,0.6,22.8c0.2,9.4,0.4,20.4,0.5,32.2c0,5.9,0.1,12,0.1,18.2c0,6.2,0,12.5,0.1,18.7
		c0,6.3,0,12.6-0.1,18.7c0,6.2-0.1,12.3-0.1,18.2c-0.1,5.9-0.1,11.6-0.2,17c-0.1,5.4-0.2,10.5-0.3,15.2c-0.2,9.4-0.4,17.3-0.6,22.8
		c-0.1,2.7-0.2,4.9-0.2,6.4C200.2,525.8,200.1,526.6,200.1,526.6z"/>
</g>
<rect x="263.6" y="385.6" class="st2" width="175.7" height="81"/>
<text transform="matrix(1 0 0 1 329.0538 432.4503)" class="st13 st4 st14">8</text>
</svg>
