<?xml version="1.0" encoding="utf-8"?>
<!-- Generator: Adobe Illustrator 19.1.0, SVG Export Plug-In . SVG Version: 6.00 Build 0)  -->
<svg version="1.1" id="Layer_1" xmlns="http://www.w3.org/2000/svg" xmlns:xlink="http://www.w3.org/1999/xlink" x="0px" y="0px"
	 viewBox="0 0 557.5 519.2" style="enable-background:new 0 0 557.5 519.2;" xml:space="preserve">
<style type="text/css">
	.st0{fill:#47B6E8;}
	.st1{opacity:0.51;fill:#1C75BC;}
	.st2{fill:#FFFFFF;}
</style>
<circle class="st0" cx="274.6" cy="259.6" r="223.3"/>
<path class="st1" d="M391.5,202.1c35.2,21.8,70.4,43.5,105.6,65.3c-0.6,18.9-4.8,81-52.3,137c-40.5,47.7-89.8,64.3-109.2,69.7
	c-51.8-32.2-103.7-64.4-155.5-96.6c56.9-12.4,113.9-24.7,170.8-37.1C364.5,294.2,378,248.2,391.5,202.1z"/>
<g>
	<path class="st2" d="M325.5,112.5v62.8c0,4.4,3.6,8,8,8h62.8L325.5,112.5z"/>
	<path class="st2" d="M324.9,200.1c-8,0-14.6-6.5-14.6-14.6v-73.9H182.7c-11.9,0-21.5,9.6-21.5,21.5v226.2
		c0,11.9,9.6,21.5,21.5,21.5h192.1c11.9,0,21.5-9.6,21.5-21.5V200.1H324.9z M345.5,316.1c0,1.6-1.3,3-3,3H215c-1.6,0-3-1.3-3-3v-16
		c0-1.6,1.3-3,3-3h127.6c1.6,0,3,1.3,3,3V316.1z M345.5,277.7c0,1.6-1.3,3-3,3H215c-1.6,0-3-1.3-3-3v-16c0-1.6,1.3-3,3-3h127.6
		c1.6,0,3,1.3,3,3V277.7z M345.5,242.3c0,1.6-1.3,3-3,3H215c-1.6,0-3-1.3-3-3v-16c0-1.6,1.3-3,3-3h127.6c1.6,0,3,1.3,3,3V242.3z"/>
</g>
</svg>
