<?xml version="1.0" encoding="utf-8"?>
<!-- Generator: Adobe Illustrator 19.1.0, SVG Export Plug-In . SVG Version: 6.00 Build 0)  -->
<svg version="1.1" id="Layer_1" xmlns="http://www.w3.org/2000/svg" xmlns:xlink="http://www.w3.org/1999/xlink" x="0px" y="0px"
	 viewBox="0 0 557.5 519.2" style="enable-background:new 0 0 557.5 519.2;" xml:space="preserve">
<style type="text/css">
	.st0{fill:#47B6E8;}
	.st1{opacity:0.51;fill:#1C75BC;}
	.st2{opacity:0.81;fill:#FFFFFF;}
	.st3{opacity:0.33;fill:#FFFFFF;}
</style>
<circle class="st0" cx="274.6" cy="259.6" r="223.3"/>
<path class="st1" d="M252.7,180.7c15.4,7.1,30.9,14.1,46.3,21.2c-2.6,14.5-3.7,26.2-4.3,34.1c-1.9,25.6,0.5,34.1-3.9,52.9
	c-1.2,5-5.2,21.2-5.2,21.2c0,0,1.5,1.3,7.4,4.6c9.2,5.1,17.1,7.6,20.9,8.7c5.1,1.4,11.7,2.8,19.7,3.3c-1.2,3.7-3.5,9-7.5,14.6
	c-1.5,2.1-7,9.3-16.9,15.1c0,0-8.2,4.7-17.7,6.7c-16.4,3.3-44.2-8.1-68.9-33.6v-21.6c2.5-2.5,5.1-5.6,7.6-9.2
	c7.1-10.1,10.2-20.2,11.6-27.4c1.2,0.4,3.9,1.3,6.9,0.3c1.5-0.5,2.6-1.3,3.8-2.5c4.3-4.2,5.8-9.7,6.9-13.9c1.6-6,1.7-10.4,1.7-11.4
	c0-4.1,0-6.8-1.6-9.7c-2.4-4.3-6.7-6.2-8.6-6.8c1.2-6.8,2.1-14.6,2.4-23.3C253.7,195.3,253.3,187.5,252.7,180.7z"/>
<path class="st2" d="M447.9,365.1c-22.5-11.3-37.4-9.1-46.2-21.2c-2.1-2.9-6.5-17.9-6.5-17.9c18.2-1.5,27.6-4.6,36.3-9.2
	c4.7-2.5,8.4-5,10.9-6.8c-1.2-4-2.8-10.1-4.1-17.6c-2.1-12.5-2-22.1-2-26.5c0.1-32.1,0.1-48.1-2-58.4c-2.6-12.6-7.4-35.8-25.8-44.8
	c-7.6-3.7-15.2-3.9-20.4-3.4c-6-3.1-18.1-8.2-33.2-6.8c-28.2,2.7-44.1,25.9-47.5,31.2c-10.8,16.9-11.7,35.3-12.9,59
	c-0.6,12.2,0.3,17.8-1.4,31.9c-1.8,15-4.9,27.1-7.5,35.3c2.6,1.7,6.5,4.2,11.5,6.8c11.9,6,23,8.7,36.5,9.8c-0.5,1.4-1.2,3.3-2.3,5.6
	c-0.2,0.5-3.7,7.7-9.3,13.8c-6.4,7.1-14.1,11-20.5,13.9c-23.3,10.8-29.3,9-38.3,14.6c-8.2,5-18.3,15.6-23.4,40.8l-8.1,63.5
	c19.7,3.9,70.6,11.2,128.1-12.5c63.4-26.1,95.4-73.6,105.6-90.3C462,373.4,456,369.2,447.9,365.1z"/>
<path class="st3" d="M222.5,329.3c0-7.2,0-14.4,0-21.6c3.3-3.4,7.1-8.1,10.6-14c5.1-8.6,7.5-16.7,8.7-22.5c1.4,0.5,3.4,0.9,5.7,0.4
	c6.6-1.4,9.7-9.8,11.5-14.5c0.6-1.6,2.2-6.2,2.2-12.3c0.1-4.7,0.1-8.7-2.5-12.3c-2.4-3.3-5.8-4.7-7.6-5.2c1-6.7,1.9-14.1,2.2-22.3
	c0.4-8.9,0.1-17-0.5-24.2c-1.4-4.9-4.5-12.9-11.6-20c-3.8-3.8-7.7-6.3-12.7-8.9c-10.6-5.4-24.3-12.5-44.3-13.3
	c-20.8-0.9-36.6,5.5-44.4,9.2c-3.6,1.3-9.5,4-15.2,9.4c-5.6,5.2-8.6,10.7-10.2,14.1c-0.8,7-1.4,14.9-1.3,23.5
	c0.1,12.3,1.3,23.2,3,32.4c-1.8,0.6-5.1,1.9-7.4,5.1c-2.4,3.3-2.3,6.9-2.1,12.2c0.2,4.8,0.3,10.1,3.4,16.1
	c1.8,3.5,4.8,9.3,10.8,10.7c2.3,0.5,4.3,0.2,5.6-0.1c1.2,6,3.5,14.3,8.7,23.2c3.2,5.5,6.7,9.8,9.7,13.1v21.9
	c-22.8,11-45.5,22.1-68.3,33.1c8.3,16,22.4,38.6,45.6,60.3c9.3,8.7,28,24.7,55.7,38c20.9,10,39.9,15.2,54,18
	c2-14.1,3.3-25.5,4.2-32.7c2.6-22.9,3.3-35.1,9.3-49c2.6-6.1,6.7-13.5,14.1-19.5c3-2.4,5.8-4,6.9-4.6c7.4-4,11.9-3.8,20.4-6.6
	c3.1-1,7.7-2.7,13.1-5.6c-2.1,0.8-5.1,1.8-8.9,2.3c-10.5,1.5-18.9-1.5-25-3.7c-7-2.5-12.2-5.6-15.8-7.8c-4.4-2.7-8.2-5.4-9.2-6.2
	c-0.6-0.4-2.4-1.8-4.7-3.7C233,339.2,228.3,335.1,222.5,329.3z"/>
<path class="st1" d="M423.3,176.4c5.9,10.9,8.6,20.3,10,26.7c1.5,6.7,2,12.8,2.3,15.9c0.5,5.7,0.6,9.9,0.6,15.9
	c0.1,20.4-0.2,20.1,0,28.2c0.2,8.5,0.4,16.9,2.1,27.7c1.2,8,2.8,14.5,4.1,19.2c-4.5,3.3-10.5,7-18.1,10.1
	c-11.6,4.7-22.1,5.8-29.1,5.9c0.5,5.4,2,12.7,7.2,18.8c7.7,9.1,18.1,9,34.1,15.1c7.4,2.9,17.6,7.6,28.8,16
	c8.9-14.5,19.1-34.9,25.8-60.8c11.7-45.5,6-84.3,1.1-105.7C469.3,198.5,446.3,187.4,423.3,176.4z"/>
</svg>
