<?xml version="1.0" encoding="utf-8"?>
<!-- Generator: Adobe Illustrator 19.1.0, SVG Export Plug-In . SVG Version: 6.00 Build 0)  -->
<svg version="1.1" id="Layer_1" xmlns="http://www.w3.org/2000/svg" xmlns:xlink="http://www.w3.org/1999/xlink" x="0px" y="0px"
	 viewBox="-30 194 550.4 452" style="enable-background:new -30 194 550.4 452;" xml:space="preserve">
<style type="text/css">
	.st0{fill:none;stroke:#47B6E8;stroke-width:3;stroke-miterlimit:10;}
	.st1{fill:none;}
	.st2{fill:#47B6E8;}
	.st3{font-family:'HelveticaNeue';}
	.st4{font-size:36px;}
</style>
<rect x="-16.2" y="207.6" class="st0" width="519.7" height="54.7"/>
<rect x="-14.1" y="284" class="st0" width="519.7" height="54.7"/>
<rect x="-14.1" y="358.2" class="st0" width="519.7" height="54.7"/>
<rect x="-15.2" y="432.3" class="st0" width="519.7" height="54.7"/>
<rect x="-13" y="508.7" class="st0" width="519.7" height="54.7"/>
<rect x="177.6" y="221" class="st1" width="132.1" height="28"/>
<text transform="matrix(1 0 0 1 177.5366 246.6995)" class="st2 st3 st4">Brent Yi</text>
<rect x="185.8" y="297.4" class="st1" width="132.1" height="28"/>
<text transform="matrix(1 0 0 1 185.708 323.066)" class="st2 st3 st4">Billy Lu</text>
<rect x="143.6" y="371.6" class="st1" width="216.4" height="28"/>
<text transform="matrix(1 0 0 1 143.5512 397.305)" class="st2 st3 st4">Joshua Yuan</text>
<rect x="133.7" y="445.6" class="st1" width="226.3" height="28"/>
<text transform="matrix(1 0 0 1 133.6653 471.3435)" class="st2 st3 st4">Bradley Chee</text>
<rect x="168.3" y="522" class="st1" width="167.1" height="28"/>
<text transform="matrix(1 0 0 1 168.2027 547.7096)" class="st2 st3 st4">Ziqi Chen</text>
<rect x="-13" y="579.7" class="st0" width="519.7" height="54.7"/>
<text transform="matrix(1 0 0 1 191.9227 618.7097)" class="st2 st3 st4">More...</text>
</svg>
